<svg class="fill-tan-3 text-grey-8 rect-logo" aria-hidden="true" viewBox="0 0 99 24" fill="#cb997e" xmlns="http://www.w3.org/2000/svg">
<path fill-rule="evenodd" clip-rule="evenodd" d="M22.9261 23.9059V0H18.9959V15.2228C18.706 14.9806 18.3944 14.749 18.0594 14.5314C16.3713 13.4344 14.2087 12.7688 11.4994 12.7688C8.78694 12.7688 6.61967 13.4405 4.92615 14.5437C4.56851 14.7767 4.23716 15.0255 3.9302 15.2862V3.83063H15.9432V0H0V23.9769L3.75277 23.9908C3.93013 23.9925 3.93012 23.9929 3.93012 23.9933L3.93011 23.9948L3.93008 23.9973L3.93005 23.9999C3.93004 24.0005 3.93005 23.999 3.93014 23.9955C3.93031 23.9884 3.93074 23.9732 3.9317 23.9504C3.9336 23.9048 3.9376 23.829 3.94577 23.7275C3.96218 23.5238 3.99511 23.2205 4.06063 22.8514C4.19326 22.1044 4.45084 21.1369 4.93913 20.1922C5.42382 19.2546 6.11575 18.3762 7.11005 17.7285C8.09124 17.0893 9.48116 16.5994 11.4994 16.5994C13.521 16.5994 14.9065 17.0864 15.8794 17.7186C16.8646 18.3588 17.5459 19.226 18.0207 20.1516C18.4993 21.0846 18.7485 22.0408 18.8749 22.7799C18.9373 23.1449 18.9677 23.4449 18.9824 23.6461C18.9898 23.7465 18.9932 23.8212 18.9947 23.8662C18.9955 23.8887 18.9958 23.9036 18.9959 23.9104C18.9959 23.9121 18.9959 23.9133 18.9959 23.914V23.9118V23.9093V23.9077C18.9959 23.9068 18.9959 23.9059 20.961 23.9059H22.9261Z"></path>
<path d="M35.9591 20.9223C34.9065 20.9223 33.9557 20.7403 33.1068 20.3597C32.2578 19.9956 31.6126 19.4495 31.1203 18.7214C30.6279 18.0098 30.3902 17.1493 30.3902 16.1398C30.3902 14.6505 30.9335 13.4755 32.0371 12.5654C33.1237 11.6718 34.6858 11.0429 36.6892 10.6789L40.5263 10.0004C41.0527 9.88457 41.4262 9.73563 41.63 9.53708C41.8337 9.33846 41.9356 9.10682 41.9356 8.85858H42.5637V13.9058C42.2921 16.2061 41.579 17.9436 40.3906 19.1351C39.202 20.3265 37.7249 20.9223 35.9591 20.9223ZM48.3195 16.5701C48.5742 16.5701 48.8798 16.537 49.2533 16.4708V20.2769C48.9816 20.3928 48.6251 20.5086 48.2006 20.6079C47.7762 20.7237 47.3008 20.7734 46.8084 20.7734C45.2464 20.7734 44.0409 20.3597 43.209 19.5323C42.377 18.7048 41.9525 17.4637 41.9356 15.7924V8.85858C41.9356 8.29593 41.6639 7.83258 41.1376 7.46851C40.6112 7.10445 39.8981 6.90587 39.0322 6.90587C38.0815 6.90587 37.3684 7.121 36.859 7.55126C36.3496 7.98151 36.061 8.54416 35.9931 9.23921H30.8316C30.8996 7.93187 31.2901 6.80658 32.0201 5.84678C32.7502 4.88697 33.701 4.1423 34.9065 3.61275C36.1119 3.06665 37.4532 2.80188 38.9643 2.80188C40.5943 2.80188 42.0205 3.06665 43.209 3.61275C44.3974 4.15884 45.3143 4.90352 45.9595 5.86332C46.5877 6.82313 46.9102 7.93186 46.9102 9.18953V14.6836C46.9102 15.2959 47.0291 15.7592 47.2668 16.0737C47.5045 16.4046 47.8611 16.5701 48.3195 16.5701ZM37.8777 17.0169C38.6757 17.0169 39.4058 16.7853 40.017 16.3384C40.6452 15.8916 41.1036 15.3124 41.4262 14.6174C41.7658 13.9223 41.9356 13.2439 41.9356 12.5985V12.433C41.7658 12.5489 41.545 12.6482 41.2564 12.7143C40.9678 12.7971 40.6622 12.8633 40.3396 12.9294L38.3361 13.2604C37.606 13.3763 36.9778 13.5749 36.4515 13.8727C35.9252 14.1706 35.6705 14.6339 35.6705 15.2793C35.6705 15.8254 35.8742 16.2391 36.2648 16.537C36.6553 16.8514 37.1986 17.0169 37.8777 17.0169Z" fill="currentColor"></path>
<path d="M59.0667 21.0877C57.1821 21.0877 55.5013 20.6905 54.0411 19.9128C52.581 19.135 51.4434 18.0428 50.6624 16.6859C49.8644 15.3124 49.4739 13.7734 49.4739 12.0358C49.4739 10.3147 49.8644 8.74266 50.6624 7.33605C51.4604 5.92944 52.581 4.82071 54.0071 4.02639C55.4503 3.21552 57.1142 2.81836 59.0328 2.81836C60.6457 2.81836 62.072 3.11623 63.3283 3.71197C64.5848 4.30771 65.5865 5.13513 66.3335 6.21077C67.0806 7.26986 67.5051 8.51099 67.6239 9.93416H62.5473C62.3776 9.10674 62.021 8.4117 61.4437 7.86561C60.8664 7.31951 60.0685 7.03818 59.0328 7.03818C58.1329 7.03818 57.3519 7.26986 56.7067 7.73321C56.0445 8.19657 55.5522 8.79231 55.2126 9.55353C54.873 10.2982 54.6863 11.1256 54.6863 12.0027C54.6863 12.8797 54.8561 13.6741 55.2126 14.4022C55.5522 15.1303 56.0615 15.7095 56.7067 16.1563C57.3689 16.5865 58.1329 16.8182 59.0328 16.8182C60.0685 16.8182 60.8834 16.5535 61.4777 16.0074C62.072 15.4613 62.4454 14.7828 62.5813 13.9554H67.6579C67.539 15.3289 67.1315 16.5535 66.4354 17.6291C65.7393 18.7047 64.7545 19.5653 63.4981 20.1941C62.2417 20.7733 60.7646 21.0877 59.0667 21.0877Z" fill="currentColor"></path>
<path d="M69.2539 20.5748V3.34799H74.3644V7.05482C74.7719 5.8137 75.3662 4.8539 76.1472 4.17541C76.9112 3.49693 77.845 3.14941 78.9316 3.14941C79.2542 3.14941 79.5429 3.16596 79.8145 3.19906C80.0862 3.23216 80.3409 3.29835 80.5956 3.38109V8.06427C80.0692 7.91534 79.5089 7.83259 78.8977 7.83259C77.5394 7.83259 76.4528 8.2794 75.6209 9.17301C74.7889 10.0666 74.3814 11.3739 74.3814 13.0784V20.5914H69.2539V20.5748Z" fill="currentColor"></path>
<path d="M90.426 21.121C88.5584 21.121 86.9115 20.7239 85.5022 19.9461C84.0931 19.1683 82.9894 18.0761 82.2084 16.7192C81.4274 15.3456 81.0369 13.7901 81.0369 12.036C81.0369 10.315 81.4104 8.74286 82.1575 7.33625C82.9045 5.92964 83.9912 4.8209 85.4004 4.02658C86.8096 3.23226 88.4565 2.802 90.3241 2.802C92.1405 2.802 93.7031 3.18261 95.0102 3.94384C96.3173 4.70506 97.3023 5.79725 97.9811 7.18731C98.6606 8.59392 99 10.2487 99 12.1518C99 12.549 98.9834 12.8965 98.9661 13.1944H85.9097C86.0965 14.5348 86.5889 15.5442 87.3868 16.1896C88.1849 16.835 89.2206 17.166 90.4939 17.166C91.3938 17.166 92.1751 16.9674 92.82 16.5536C93.4649 16.1399 93.9235 15.627 94.1444 14.9981H98.8816C98.4736 17.017 97.472 18.5394 95.91 19.5655C94.3481 20.608 92.5145 21.121 90.426 21.121ZM94.0765 10.0005C93.9068 8.94144 93.4989 8.14711 92.8367 7.61757C92.1745 7.07148 91.3259 6.8067 90.3071 6.8067C89.2715 6.8067 88.3716 7.07148 87.6246 7.60102C86.8775 8.13057 86.3512 8.9249 86.0456 10.0005H94.0765Z" fill="currentColor"></path></svg>