<svg width="158" height="32" viewBox="0 0 158 32" fill="none" xmlns="http://www.w3.org/2000/svg">
<path d="M41.6276 27.2831C40.5111 27.2831 39.5209 27.0697 38.6572 26.6431C37.8145 26.1951 37.1193 25.6297 36.5716 24.9471V26.9631H33.6328V2.16309H36.5716V15.5071C37.0983 14.8031 37.8356 14.2377 38.7836 13.8111C39.7316 13.3844 40.806 13.1711 42.0068 13.1711C43.1655 13.1711 44.2293 13.4591 45.1984 14.0351C46.1675 14.5897 46.9469 15.3897 47.5368 16.4351C48.1267 17.4804 48.4216 18.7071 48.4216 20.1151C48.4216 21.6297 48.1056 22.9204 47.4736 23.9871C46.8416 25.0537 46.0095 25.8751 44.9772 26.4511C43.9449 27.0057 42.8284 27.2831 41.6276 27.2831ZM40.9956 24.7231C42.2807 24.7231 43.334 24.2964 44.1556 23.4431C44.9983 22.5684 45.4196 21.4591 45.4196 20.1151C45.4196 19.2617 45.2195 18.4937 44.8192 17.8111C44.44 17.1071 43.9133 16.5524 43.2392 16.1471C42.5861 15.7417 41.8383 15.5391 40.9956 15.5391C39.9001 15.5391 38.9521 15.8377 38.1516 16.4351C37.3511 17.0324 36.8244 17.8004 36.5716 18.7391V21.4591C36.8244 22.3977 37.3405 23.1764 38.12 23.7951C38.8995 24.4137 39.858 24.7231 40.9956 24.7231ZM57.8314 27.2831C56.5885 27.2831 55.4614 27.0164 54.4502 26.4831C53.4601 25.9497 52.6701 25.1711 52.0802 24.1471C51.5114 23.1017 51.227 21.8324 51.227 20.3391C51.227 18.8457 51.5219 17.5657 52.1118 16.4991C52.7227 15.4324 53.5338 14.6111 54.545 14.0351C55.5773 13.4591 56.7043 13.1711 57.9262 13.1711C59.1059 13.1711 60.1066 13.4271 60.9282 13.9391C61.7498 14.4511 62.3923 15.0697 62.8558 15.7951L63.077 13.7151H65.7946V26.9631H62.8558V24.7871C62.603 25.1284 62.2343 25.4911 61.7498 25.8751C61.2863 26.2591 60.7175 26.5897 60.0434 26.8671C59.3903 27.1444 58.653 27.2831 57.8314 27.2831ZM58.6214 24.8191C59.6958 24.8191 60.6122 24.5204 61.3706 23.9231C62.129 23.3044 62.6241 22.4724 62.8558 21.4271V18.8031C62.603 17.8857 62.0763 17.1284 61.2758 16.5311C60.4753 15.9337 59.5589 15.6351 58.5266 15.6351C57.7261 15.6351 56.9993 15.8271 56.3462 16.2111C55.6931 16.5951 55.1665 17.1284 54.7662 17.8111C54.387 18.4937 54.1974 19.2831 54.1974 20.1791C54.1974 21.0537 54.3975 21.8431 54.7978 22.5471C55.1981 23.2297 55.7353 23.7844 56.4094 24.2111C57.0835 24.6164 57.8209 24.8191 58.6214 24.8191ZM74.6081 27.2191C73.6601 27.2191 72.7437 27.0591 71.8589 26.7391C70.9951 26.3977 70.2789 25.8964 69.7101 25.2351L70.9741 23.5071C71.5007 24.0404 72.059 24.4457 72.6489 24.7231C73.2387 24.9791 73.8075 25.1071 74.3553 25.1071C74.9873 25.1071 75.535 24.9791 75.9985 24.7231C76.483 24.4671 76.7253 24.0297 76.7253 23.4111C76.7253 22.9417 76.5673 22.5684 76.2513 22.2911C75.9563 22.0137 75.5666 21.8004 75.0821 21.6511C74.6186 21.4804 74.1341 21.3097 73.6285 21.1391C71.3954 20.4137 70.2789 19.1231 70.2789 17.2671C70.2789 16.5844 70.4474 15.9337 70.7845 15.3151C71.1426 14.6964 71.6587 14.1951 72.3329 13.8111C73.0281 13.4271 73.8813 13.2351 74.8925 13.2351C75.7983 13.2351 76.6094 13.3524 77.3257 13.5871C78.0419 13.8217 78.7161 14.1951 79.3481 14.7071L78.1789 16.5311C77.7997 16.1471 77.3467 15.8591 76.8201 15.6671C76.3145 15.4537 75.851 15.3364 75.4297 15.3151C74.8609 15.3151 74.3553 15.4537 73.9129 15.7311C73.4915 16.0084 73.2809 16.3924 73.2809 16.8831C73.2598 17.3311 73.3967 17.6937 73.6917 17.9711C73.9866 18.2271 74.3658 18.4404 74.8293 18.6111C75.3138 18.7817 75.7983 18.9417 76.2829 19.0911C77.2309 19.4111 78.0314 19.8484 78.6845 20.4031C79.3586 20.9577 79.6957 21.7684 79.6957 22.8351C79.6957 24.0297 79.2743 25.0644 78.4317 25.9391C77.589 26.7924 76.3145 27.2191 74.6081 27.2191ZM89.8773 27.2831C88.4026 27.2831 87.1176 26.9844 86.0221 26.3871C84.9477 25.7684 84.1156 24.9257 83.5257 23.8591C82.9569 22.7924 82.6725 21.5871 82.6725 20.2431C82.6725 18.9417 82.9885 17.7577 83.6205 16.6911C84.2736 15.6031 85.1478 14.7497 86.2433 14.1311C87.3598 13.4911 88.5922 13.1711 89.9405 13.1711C91.668 13.1711 93.1005 13.6831 94.2381 14.7071C95.3757 15.7311 96.1552 17.1391 96.5765 18.9311L86.2117 22.6111C86.5698 23.2724 87.0754 23.7951 87.7285 24.1791C88.3816 24.5417 89.1189 24.7231 89.9405 24.7231C90.5304 24.7231 91.0886 24.6164 91.6153 24.4031C92.142 24.1897 92.6476 23.9124 93.1321 23.5711L94.4909 25.7791C93.8168 26.2271 93.0689 26.5897 92.2473 26.8671C91.4468 27.1444 90.6568 27.2831 89.8773 27.2831ZM85.5797 20.0831C85.5586 20.3391 85.5692 20.5844 85.6113 20.8191L93.2269 17.9711C92.932 17.3311 92.5001 16.7657 91.9313 16.2751C91.3836 15.7844 90.6462 15.5391 89.7193 15.5391C88.5185 15.5391 87.5284 15.9657 86.7489 16.8191C85.9694 17.6724 85.5797 18.7604 85.5797 20.0831ZM100.227 2.16309H103.166V26.9631H100.227V2.16309ZM108.282 13.7151H111.22V26.9631H108.282V13.7151ZM108.06 8.94708C108.06 8.45642 108.24 8.06175 108.598 7.76308C108.977 7.44308 109.388 7.28308 109.83 7.28308C110.272 7.28308 110.673 7.44308 111.031 7.76308C111.389 8.06175 111.568 8.45642 111.568 8.94708C111.568 9.43775 111.389 9.84308 111.031 10.1631C110.673 10.4618 110.272 10.6111 109.83 10.6111C109.388 10.6111 108.977 10.4618 108.598 10.1631C108.24 9.84308 108.06 9.43775 108.06 8.94708ZM118.99 13.7151L119.18 16.2431C119.685 15.2831 120.37 14.5364 121.234 14.0031C122.119 13.4484 123.13 13.1711 124.267 13.1711C125.342 13.1711 126.237 13.4271 126.953 13.9391C127.691 14.4511 128.144 15.1444 128.312 16.0191C128.839 15.1231 129.524 14.4297 130.366 13.9391C131.23 13.4271 132.146 13.1711 133.115 13.1711C134.379 13.1711 135.38 13.5444 136.117 14.2911C136.876 15.0377 137.276 15.9871 137.318 17.1391V26.9631H134.379V18.2591C134.337 17.5764 134.158 17.0111 133.842 16.5631C133.547 16.0937 133.031 15.8377 132.294 15.7951C131.514 15.7951 130.83 16.0297 130.24 16.4991C129.65 16.9471 129.187 17.5444 128.849 18.2911C128.512 19.0377 128.333 19.8271 128.312 20.6591V26.9631H125.342V18.2591C125.321 17.5764 125.142 17.0111 124.805 16.5631C124.489 16.0937 123.951 15.8377 123.193 15.7951C122.435 15.7951 121.761 16.0297 121.171 16.4991C120.581 16.9471 120.117 17.5444 119.78 18.2911C119.443 19.0377 119.275 19.8377 119.275 20.6911V26.9631H116.336V13.7151H118.99ZM148.479 27.2831C147.005 27.2831 145.719 26.9844 144.624 26.3871C143.55 25.7684 142.717 24.9257 142.128 23.8591C141.559 22.7924 141.274 21.5871 141.274 20.2431C141.274 18.9417 141.59 17.7577 142.222 16.6911C142.875 15.6031 143.75 14.7497 144.845 14.1311C145.962 13.4911 147.194 13.1711 148.542 13.1711C150.27 13.1711 151.702 13.6831 152.84 14.7071C153.978 15.7311 154.757 17.1391 155.178 18.9311L144.814 22.6111C145.172 23.2724 145.677 23.7951 146.33 24.1791C146.983 24.5417 147.721 24.7231 148.542 24.7231C149.132 24.7231 149.691 24.6164 150.217 24.4031C150.744 24.1897 151.249 23.9124 151.734 23.5711L153.093 25.7791C152.419 26.2271 151.671 26.5897 150.849 26.8671C150.049 27.1444 149.259 27.2831 148.479 27.2831ZM144.182 20.0831C144.161 20.3391 144.171 20.5844 144.213 20.8191L151.829 17.9711C151.534 17.3311 151.102 16.7657 150.533 16.2751C149.985 15.7844 149.248 15.5391 148.321 15.5391C147.12 15.5391 146.13 15.9657 145.351 16.8191C144.571 17.6724 144.182 18.7604 144.182 20.0831Z" fill="white"/>
<path d="M13.4886 2.37061H6.46638C4.39797 2.37061 2.72119 4.06861 2.72119 6.1632V25.8373C2.72119 27.9319 4.39797 29.6299 6.46638 29.6299H13.4886C15.557 29.6299 17.2338 27.9319 17.2338 25.8373V6.1632C17.2338 4.06861 15.557 2.37061 13.4886 2.37061Z" fill="#0BB859"/>
<path d="M25.1337 13.689H22.3834C20.315 13.689 18.6382 15.387 18.6382 17.4816V25.926C18.6382 28.0206 20.315 29.7186 22.3834 29.7186H25.1337C27.2021 29.7186 28.8789 28.0206 28.8789 25.926V17.4816C28.8789 15.387 27.2021 13.689 25.1337 13.689Z" fill="#317EF1"/>
<path d="M26.4797 2.37061H21.0374C19.7124 2.37061 18.6382 3.45839 18.6382 4.80023C18.6382 6.14208 19.7124 7.22986 21.0374 7.22986H26.4797C27.8047 7.22986 28.8789 6.14208 28.8789 4.80023C28.8789 3.45839 27.8047 2.37061 26.4797 2.37061Z" fill="#FFC71E"/>
<path d="M26.4797 8.02979H21.0374C19.7124 8.02979 18.6382 9.11757 18.6382 10.4594C18.6382 11.8013 19.7124 12.889 21.0374 12.889H26.4797C27.8047 12.889 28.8789 11.8013 28.8789 10.4594C28.8789 9.11757 27.8047 8.02979 26.4797 8.02979Z" fill="#F94E1E"/>
</svg>
