<svg width="1000" height="667" viewBox="0 0 1000 667" fill="none" xmlns="http://www.w3.org/2000/svg">
<rect width="1000" height="667" fill="white" fill-opacity="0.5"/>
<rect width="1000" height="667" fill="white" fill-opacity="0.5"/>
<g filter="url(#filter0_d)">
<rect x="100" y="80" width="799" height="508" rx="8" fill="#FCFCFC"/>
</g>
<line x1="100" y1="143.5" x2="899" y2="143.5" stroke="#E4E4E4"/>
<circle cx="133" cy="112" r="9" fill="#E4E4E4"/>
<circle cx="164" cy="112" r="9" fill="#E4E4E4"/>
<ellipse cx="194.5" cy="112" rx="9.5" ry="9" fill="#E4E4E4"/>
<rect x="106" y="152" width="67" height="430" rx="8" fill="#0A1233"/>
<rect x="185" y="259" width="708" height="323" rx="8" fill="#EEF1EE"/>
<circle cx="203.5" cy="176.5" r="18.5" fill="#E4E4E4"/>
<circle cx="882.5" cy="178.5" r="10.5" fill="#E4E4E4"/>
<rect x="232" y="166" width="229" height="21" rx="8" fill="#E4E4E4"/>
<rect x="211" y="280" width="229" height="21" rx="8" fill="#1A6AE3" fill-opacity="0.5"/>
<rect x="185" y="236" width="261" height="15" rx="7.5" fill="#E4E4E4"/>
<rect x="232" y="191" width="105" height="13" rx="6.5" fill="#FED14A"/>
<g filter="url(#filter1_d)">
<rect x="837" y="212" width="112" height="37" rx="8" fill="#32A767"/>
</g>
<path fill-rule="evenodd" clip-rule="evenodd" d="M140.965 278.255H141.755L146.745 283.255L145.255 284.745L140.255 279.755V278.965L139.985 278.685C138.845 279.665 137.365 280.255 135.755 280.255C132.165 280.255 129.255 277.345 129.255 273.755C129.255 270.165 132.165 267.255 135.755 267.255C139.345 267.255 142.255 270.165 142.255 273.755C142.255 275.365 141.665 276.845 140.685 277.985L140.965 278.255ZM131.255 273.755C131.255 276.245 133.265 278.255 135.755 278.255C138.245 278.255 140.255 276.245 140.255 273.755C140.255 271.265 138.245 269.255 135.755 269.255C133.265 269.255 131.255 271.265 131.255 273.755Z" fill="white" fill-opacity="0.5"/>
<path fill-rule="evenodd" clip-rule="evenodd" d="M139.576 384.91L148.656 393.99C149.056 394.39 149.056 395.02 148.656 395.4L146.356 397.7C145.966 398.09 145.336 398.09 144.946 397.7L135.836 388.59C133.516 389.46 130.806 388.97 128.946 387.11C126.646 384.82 126.436 381.23 128.296 378.69L132.126 382.52L133.546 381.11L129.706 377.26C132.256 375.4 135.836 375.61 138.136 377.91C140.026 379.81 140.506 382.57 139.576 384.91ZM136.196 386.13L145.656 395.59L146.536 394.7L137.086 385.25C137.546 384.66 137.846 384 137.966 383.29C138.216 381.9 137.806 380.41 136.726 379.33C135.776 378.39 134.526 377.95 133.286 378.02L136.376 381.11L132.136 385.35L129.046 382.26C128.976 383.5 129.416 384.76 130.366 385.7C131.406 386.74 132.836 387.15 134.196 386.95C134.906 386.85 135.586 386.58 136.196 386.13Z" fill="white" fill-opacity="0.5"/>
<path fill-rule="evenodd" clip-rule="evenodd" d="M145 230H131C129.9 230 129 230.9 129 232V246C129 247.1 129.9 248 131 248H145C146.1 248 147 247.1 147 246V232C147 230.9 146.1 230 145 230ZM145 246H131V232H145V246ZM135 237H133V244H135V237ZM137 234H139V244H137V234ZM143 240H141V244H143V240Z" fill="white" fill-opacity="0.5"/>
<path fill-rule="evenodd" clip-rule="evenodd" d="M127 359.5L138 340.5L149 359.5H127ZM145.53 357.5L138 344.49L130.47 357.5H145.53ZM137 354.5V356.5H139V354.5H137ZM137 348.5H139V352.5H137V348.5Z" fill="white" fill-opacity="0.5"/>
<path fill-rule="evenodd" clip-rule="evenodd" d="M143 307C139.69 307 137 309.69 137 313C137 316.31 139.69 319 143 319C146.31 319 149 316.31 149 313C149 309.69 146.31 307 143 307ZM131 309C128.79 309 127 310.79 127 313C127 315.21 128.79 317 131 317C133.21 317 135 315.21 135 313C135 310.79 133.21 309 131 309ZM129 313C129 314.1 129.9 315 131 315C132.1 315 133 314.1 133 313C133 311.9 132.1 311 131 311C129.9 311 129 311.9 129 313Z" fill="white" fill-opacity="0.5"/>
<path d="M211 323C211 318.582 214.582 315 219 315H864C868.418 315 872 318.582 872 323V582H211V323Z" fill="#F9F9F9"/>
<rect x="265.5" y="339.5" width="271" height="159" rx="7.5" fill="white" stroke="#E4E4E4"/>
<g opacity="0.24">
<rect x="521" y="487.969" width="6" height="2" transform="rotate(-180 521 487.969)" fill="#2F80ED"/>
</g>
<g opacity="0.64">
<rect x="521" y="491.969" width="6" height="2" transform="rotate(-180 521 491.969)" fill="#2F80ED"/>
</g>
<g opacity="0.24">
<rect x="514.313" y="489.969" width="6" height="4" transform="rotate(-180 514.313 489.969)" fill="#2F80ED"/>
</g>
<g opacity="0.64">
<rect x="514.313" y="493.969" width="6" height="2" transform="rotate(-180 514.313 493.969)" fill="#2F80ED"/>
</g>
<g opacity="0.64">
<rect x="507.625" y="489.969" width="6" height="2" transform="rotate(-180 507.625 489.969)" fill="#2F80ED"/>
</g>
<g opacity="0.24">
<rect x="500.938" y="487.969" width="6" height="2" transform="rotate(180 500.938 487.969)" fill="#2F80ED"/>
</g>
<g opacity="0.64">
<rect width="6" height="2" transform="matrix(-1 0 0 1 500.938 483.969)" fill="#2F80ED"/>
</g>
<g opacity="0.24">
<rect x="494.251" y="486.969" width="6" height="1" transform="rotate(180 494.251 486.969)" fill="#2F80ED"/>
</g>
<g opacity="0.64">
<rect width="6" height="2" transform="matrix(-1 0 0 1 494.251 482.969)" fill="#2F80ED"/>
</g>
<g opacity="0.24">
<rect x="487.563" y="487.969" width="6" height="2" transform="rotate(-180 487.563 487.969)" fill="#2F80ED"/>
</g>
<g opacity="0.64">
<rect x="487.563" y="491.969" width="6" height="2" transform="rotate(-180 487.563 491.969)" fill="#2F80ED"/>
</g>
<g opacity="0.24">
<rect width="6" height="4" transform="matrix(-1 0 0 1 480.876 481.969)" fill="#2F80ED"/>
</g>
<g opacity="0.64">
<rect width="6" height="2" transform="matrix(-1 0 0 1 480.876 477.969)" fill="#2F80ED"/>
</g>
<g opacity="0.24">
<rect width="6" height="18" transform="matrix(-1 0 0 1 474.189 467.969)" fill="#2F80ED"/>
</g>
<g opacity="0.64">
<rect width="6" height="2" transform="matrix(-1 0 0 1 474.189 463.969)" fill="#2F80ED"/>
</g>
<g opacity="0.24">
<rect width="6" height="10" transform="matrix(-1 0 0 1 467.501 475.969)" fill="#2F80ED"/>
</g>
<g opacity="0.64">
<rect width="6" height="2" transform="matrix(-1 0 0 1 467.501 471.969)" fill="#2F80ED"/>
</g>
<g opacity="0.24">
<rect width="6" height="24" transform="matrix(-1 0 0 1 460.814 461.969)" fill="#2F80ED"/>
</g>
<g opacity="0.64">
<rect width="6" height="2" transform="matrix(-1 0 0 1 460.814 457.969)" fill="#2F80ED"/>
</g>
<g opacity="0.24">
<rect width="6" height="2" transform="matrix(-1 0 0 1 454.127 483.969)" fill="#2F80ED"/>
</g>
<g opacity="0.64">
<rect width="6" height="2" transform="matrix(-1 0 0 1 454.127 479.969)" fill="#2F80ED"/>
</g>
<g opacity="0.24">
<rect width="6" height="4" transform="matrix(-1 0 0 1 447.44 481.969)" fill="#2F80ED"/>
</g>
<g opacity="0.64">
<rect width="6" height="2" transform="matrix(-1 0 0 1 447.44 477.969)" fill="#2F80ED"/>
</g>
<g opacity="0.24">
<rect width="6" height="8" transform="matrix(-1 0 0 1 440.752 477.969)" fill="#2F80ED"/>
</g>
<g opacity="0.64">
<rect width="6" height="2" transform="matrix(-1 0 0 1 440.752 473.969)" fill="#2F80ED"/>
</g>
<g opacity="0.24">
<rect width="6" height="18" transform="matrix(-1 0 0 1 434.065 467.969)" fill="#2F80ED"/>
</g>
<g opacity="0.64">
<rect width="6" height="2" transform="matrix(-1 0 0 1 434.065 463.969)" fill="#2F80ED"/>
</g>
<g opacity="0.24">
<rect width="6" height="6" transform="matrix(-1 0 0 1 427.378 479.969)" fill="#2F80ED"/>
</g>
<g opacity="0.64">
<rect width="6" height="2" transform="matrix(-1 0 0 1 427.378 475.969)" fill="#2F80ED"/>
</g>
<g opacity="0.24">
<rect width="6" height="20" transform="matrix(-1 0 0 1 420.69 465.969)" fill="#2F80ED"/>
</g>
<g opacity="0.64">
<rect width="6" height="2" transform="matrix(-1 0 0 1 420.69 461.969)" fill="#2F80ED"/>
</g>
<g opacity="0.24">
<rect width="6" height="14" transform="matrix(-1 0 0 1 414.003 471.969)" fill="#2F80ED"/>
</g>
<g opacity="0.64">
<rect width="6" height="2" transform="matrix(-1 0 0 1 414.003 467.969)" fill="#2F80ED"/>
</g>
<g opacity="0.24">
<rect width="6" height="22" transform="matrix(-1 0 0 1 407.316 463.969)" fill="#2F80ED"/>
</g>
<g opacity="0.64">
<rect width="6" height="2" transform="matrix(-1 0 0 1 407.316 459.969)" fill="#2F80ED"/>
</g>
<g opacity="0.24">
<rect width="6" height="26" transform="matrix(-1 0 0 1 400.628 459.969)" fill="#2F80ED"/>
</g>
<g opacity="0.64">
<rect width="6" height="2" transform="matrix(-1 0 0 1 400.628 455.969)" fill="#2F80ED"/>
</g>
<g opacity="0.24">
<rect width="6" height="35" transform="matrix(-1 0 0 1 393.941 450.969)" fill="#2F80ED"/>
</g>
<g opacity="0.64">
<rect width="6" height="2" transform="matrix(-1 0 0 1 393.941 446.969)" fill="#2F80ED"/>
</g>
<g opacity="0.24">
<rect width="6" height="32" transform="matrix(-1 0 0 1 387.254 453.969)" fill="#2F80ED"/>
</g>
<g opacity="0.64">
<rect width="6" height="2" transform="matrix(-1 0 0 1 387.254 449.969)" fill="#2F80ED"/>
</g>
<g opacity="0.24">
<rect width="6" height="30" transform="matrix(-1 0 0 1 380.567 455.969)" fill="#2F80ED"/>
</g>
<g opacity="0.64">
<rect width="6" height="2" transform="matrix(-1 0 0 1 380.567 451.969)" fill="#2F80ED"/>
</g>
<g opacity="0.24">
<rect width="6" height="34" transform="matrix(-1 0 0 1 373.879 451.969)" fill="#2F80ED"/>
</g>
<g opacity="0.64">
<rect width="6" height="2" transform="matrix(-1 0 0 1 373.879 447.969)" fill="#2F80ED"/>
</g>
<g opacity="0.24">
<rect width="6" height="24" transform="matrix(-1 0 0 1 367.192 461.969)" fill="#2F80ED"/>
</g>
<g opacity="0.64">
<rect width="6" height="2" transform="matrix(-1 0 0 1 367.192 457.969)" fill="#2F80ED"/>
</g>
<g opacity="0.24">
<rect width="6" height="46" transform="matrix(-1 0 0 1 360.505 439.969)" fill="#2F80ED"/>
</g>
<g opacity="0.64">
<rect width="6" height="2" transform="matrix(-1 0 0 1 360.505 435.969)" fill="#2F80ED"/>
</g>
<g opacity="0.24">
<rect width="6" height="30" transform="matrix(-1 0 0 1 353.817 455.969)" fill="#2F80ED"/>
</g>
<g opacity="0.64">
<rect width="6" height="2" transform="matrix(-1 0 0 1 353.817 451.969)" fill="#2F80ED"/>
</g>
<g opacity="0.24">
<rect width="6" height="39" transform="matrix(-1 0 0 1 347.13 446.969)" fill="#2F80ED"/>
</g>
<g opacity="0.64">
<rect width="6" height="2" transform="matrix(-1 0 0 1 347.13 442.969)" fill="#2F80ED"/>
</g>
<g opacity="0.24">
<rect width="6" height="48" transform="matrix(-1 0 0 1 340.443 437.969)" fill="#2F80ED"/>
</g>
<g opacity="0.64">
<rect width="6" height="2" transform="matrix(-1 0 0 1 340.443 433.969)" fill="#2F80ED"/>
</g>
<g opacity="0.24">
<rect width="6" height="42" transform="matrix(-1 0 0 1 333.755 443.969)" fill="#2F80ED"/>
</g>
<g opacity="0.64">
<rect width="6" height="2" transform="matrix(-1 0 0 1 333.755 439.969)" fill="#2F80ED"/>
</g>
<g opacity="0.24">
<rect width="6" height="37" transform="matrix(-1 0 0 1 327.068 448.969)" fill="#2F80ED"/>
</g>
<g opacity="0.64">
<rect width="6" height="2" transform="matrix(-1 0 0 1 327.068 444.969)" fill="#2F80ED"/>
</g>
<g opacity="0.24">
<rect width="6" height="55" transform="matrix(-1 0 0 1 320.381 430.969)" fill="#2F80ED"/>
</g>
<g opacity="0.64">
<rect width="6" height="2" transform="matrix(-1 0 0 1 320.381 426.969)" fill="#2F80ED"/>
</g>
<g opacity="0.24">
<rect width="6" height="50" transform="matrix(-1 0 0 1 313.694 435.969)" fill="#2F80ED"/>
</g>
<g opacity="0.64">
<rect width="6" height="2" transform="matrix(-1 0 0 1 313.694 431.969)" fill="#2F80ED"/>
</g>
<g opacity="0.24">
<rect width="6" height="42" transform="matrix(-1 0 0 1 307.006 443.969)" fill="#2F80ED"/>
</g>
<g opacity="0.64">
<rect width="6" height="2" transform="matrix(-1 0 0 1 307.006 439.969)" fill="#2F80ED"/>
</g>
<g opacity="0.24">
<rect width="6" height="46" transform="matrix(-1 0 0 1 300.319 439.969)" fill="#2F80ED"/>
</g>
<g opacity="0.64">
<rect width="6" height="2" transform="matrix(-1 0 0 1 300.319 435.969)" fill="#2F80ED"/>
</g>
<g opacity="0.24">
<rect width="6" height="55" transform="matrix(-1 0 0 1 293.632 430.969)" fill="#2F80ED"/>
</g>
<g opacity="0.64">
<rect width="6" height="2" transform="matrix(-1 0 0 1 293.632 426.969)" fill="#2F80ED"/>
</g>
<g opacity="0.24">
<rect width="6" height="65" transform="matrix(-1 0 0 1 286.944 420.969)" fill="#2F80ED"/>
</g>
<g opacity="0.64">
<rect width="6" height="2" transform="matrix(-1 0 0 1 286.944 416.969)" fill="#2F80ED"/>
</g>
<rect x="462" y="354" width="60" height="22" rx="8" fill="#E4E4E4"/>
<rect x="281" y="354" width="93" height="22" rx="8" fill="#FED14A"/>
<rect x="550.5" y="340.5" width="267" height="158" rx="7.5" fill="white" stroke="#E4E4E4"/>
<g opacity="0.24" clip-path="url(#clip0)">
<path d="M802.022 425.413C810.011 425.413 810.011 413.431 818 413.431V498H258.757V490.03C267.412 490.03 266.746 494.438 274.736 494.438C282.725 494.438 282.725 481.921 290.714 481.921C298.703 481.921 297.372 485.772 306.692 485.772C316.013 485.772 313.35 492.983 322.671 492.983C331.991 492.983 329.994 490.244 338.649 490.244C347.304 490.244 345.64 477.192 354.627 477.192C363.615 477.192 361.285 481.45 370.606 481.45C379.927 481.45 378.262 487.313 386.584 487.313C394.906 487.313 393.575 467.842 402.563 467.842C411.55 467.842 410.552 474.582 418.541 474.582C426.53 474.582 425.199 465.146 434.519 465.146C443.84 465.146 441.843 471.18 450.498 471.18C459.153 471.18 457.821 446.51 466.476 446.51C475.131 446.51 473.467 453.378 482.454 453.378C491.442 453.378 489.112 457.914 498.433 457.914C507.753 457.914 505.423 446.146 514.411 446.146C523.399 446.146 521.069 451.923 530.389 451.923C539.71 451.923 538.046 442.402 546.368 442.402C554.69 442.402 553.691 426.483 562.346 426.483C571.001 426.483 569.67 453.121 578.325 453.121C586.979 453.121 585.981 434.463 594.303 434.463C602.625 434.463 600.961 442.637 610.281 442.637C619.602 442.637 617.605 449.976 626.26 449.976C634.915 449.976 633.916 437.823 642.238 437.823C650.56 437.823 649.894 449.377 658.216 449.377C666.538 449.377 665.54 444.242 674.195 444.242C682.85 444.242 681.518 433.65 690.173 433.65C698.828 433.65 697.497 437.887 706.151 437.887C714.806 437.887 714.141 422.417 722.13 422.417C730.119 422.417 728.787 443.621 738.108 443.621C747.429 443.621 745.099 429.221 754.087 429.221C763.074 429.221 761.743 435.148 770.065 435.148C778.387 435.148 777.721 420.385 786.043 420.385C794.365 420.385 794.032 425.413 802.022 425.413Z" fill="#FB7E14"/>
</g>
<g clip-path="url(#clip1)">
<path d="M818 413.431C810.011 413.431 810.011 425.413 802.022 425.413C794.032 425.413 794.365 420.385 786.043 420.385C777.721 420.385 778.387 435.148 770.065 435.148C761.743 435.148 763.074 429.221 754.087 429.221C745.099 429.221 747.429 443.621 738.108 443.621C728.787 443.621 730.119 422.417 722.13 422.417C714.141 422.417 714.806 437.887 706.151 437.887C697.497 437.887 698.828 433.65 690.173 433.65C681.518 433.65 682.85 444.242 674.195 444.242C665.54 444.242 666.538 449.377 658.216 449.377C649.894 449.377 650.56 437.823 642.238 437.823C633.916 437.823 634.915 449.976 626.26 449.976C617.605 449.976 619.602 442.637 610.281 442.637C600.961 442.637 602.625 434.463 594.303 434.463C585.981 434.463 586.979 453.121 578.325 453.121C569.67 453.121 571.001 426.483 562.346 426.483C553.691 426.483 554.69 442.402 546.368 442.402C538.046 442.402 539.71 451.923 530.389 451.923C521.069 451.923 523.399 446.146 514.411 446.146C505.423 446.146 507.753 457.914 498.433 457.914C489.112 457.914 491.442 453.378 482.454 453.378C473.467 453.378 475.131 446.51 466.476 446.51C457.821 446.51 459.153 471.18 450.498 471.18C441.843 471.18 443.84 465.146 434.519 465.146C425.199 465.146 426.53 474.582 418.541 474.582C410.552 474.582 411.55 467.842 402.563 467.842C393.575 467.842 394.906 487.313 386.584 487.313C378.262 487.313 379.927 481.45 370.606 481.45C361.285 481.45 363.615 477.192 354.627 477.192C345.64 477.192 347.304 490.244 338.649 490.244C329.994 490.244 331.991 492.983 322.671 492.983C313.35 492.983 316.013 485.772 306.692 485.772C297.372 485.772 298.703 481.921 290.714 481.921C282.725 481.921 282.725 494.438 274.736 494.438C266.746 494.438 267.412 490.03 258.757 490.03" stroke="#F2C94C" stroke-width="0.665765"/>
</g>
<g opacity="0.24" clip-path="url(#clip2)">
<path d="M802.022 489.067C810.011 489.067 810.011 487.427 818 487.427V499H258.757V497.909C267.412 497.909 266.746 498.513 274.736 498.513C282.725 498.513 282.725 496.8 290.714 496.8C298.703 496.8 297.372 497.327 306.692 497.327C316.013 497.327 313.35 498.313 322.671 498.313C331.991 498.313 329.994 497.939 338.649 497.939C347.304 497.939 345.64 496.153 354.627 496.153C363.615 496.153 361.285 496.735 370.606 496.735C379.927 496.735 378.262 497.538 386.584 497.538C394.906 497.538 393.575 494.873 402.563 494.873C411.55 494.873 410.552 495.795 418.541 495.795C426.53 495.795 425.199 494.504 434.519 494.504C443.84 494.504 441.843 495.33 450.498 495.33C459.153 495.33 457.821 491.954 466.476 491.954C475.131 491.954 473.467 492.894 482.454 492.894C491.442 492.894 489.112 493.515 498.433 493.515C507.753 493.515 505.423 491.904 514.411 491.904C523.399 491.904 521.069 492.695 530.389 492.695C539.71 492.695 538.046 491.392 546.368 491.392C554.69 491.392 553.691 489.213 562.346 489.213C571.001 489.213 569.67 492.859 578.325 492.859C586.979 492.859 585.981 490.306 594.303 490.306C602.625 490.306 600.961 491.424 610.281 491.424C619.602 491.424 617.605 492.428 626.26 492.428C634.915 492.428 633.916 490.765 642.238 490.765C650.56 490.765 649.894 492.346 658.216 492.346C666.538 492.346 665.54 491.644 674.195 491.644C682.85 491.644 681.518 490.194 690.173 490.194C698.828 490.194 697.497 490.774 706.151 490.774C714.806 490.774 714.141 488.657 722.13 488.657C730.119 488.657 728.787 491.559 738.108 491.559C747.429 491.559 745.099 489.588 754.087 489.588C763.074 489.588 761.743 490.399 770.065 490.399C778.387 490.399 777.721 488.379 786.043 488.379C794.365 488.379 794.032 489.067 802.022 489.067Z" fill="#CDE1FB"/>
</g>
<g clip-path="url(#clip3)">
<path d="M818 487.427C810.011 487.427 810.011 489.067 802.022 489.067C794.032 489.067 794.365 488.379 786.043 488.379C777.721 488.379 778.387 490.399 770.065 490.399C761.743 490.399 763.074 489.588 754.087 489.588C745.099 489.588 747.429 491.559 738.108 491.559C728.787 491.559 730.119 488.657 722.13 488.657C714.141 488.657 714.806 490.774 706.151 490.774C697.497 490.774 698.828 490.194 690.173 490.194C681.518 490.194 682.85 491.644 674.195 491.644C665.54 491.644 666.538 492.346 658.216 492.346C649.894 492.346 650.56 490.765 642.238 490.765C633.916 490.765 634.915 492.428 626.26 492.428C617.605 492.428 619.602 491.424 610.281 491.424C600.961 491.424 602.625 490.306 594.303 490.306C585.981 490.306 586.979 492.859 578.325 492.859C569.67 492.859 571.001 489.213 562.346 489.213C553.691 489.213 554.69 491.392 546.368 491.392C538.046 491.392 539.71 492.695 530.389 492.695C521.069 492.695 523.399 491.904 514.411 491.904C505.423 491.904 507.753 493.515 498.433 493.515C489.112 493.515 491.442 492.894 482.454 492.894C473.467 492.894 475.131 491.954 466.476 491.954C457.821 491.954 459.153 495.33 450.498 495.33C441.843 495.33 443.84 494.504 434.519 494.504C425.199 494.504 426.53 495.795 418.541 495.795C410.552 495.795 411.55 494.873 402.563 494.873C393.575 494.873 394.906 497.538 386.584 497.538C378.262 497.538 379.927 496.735 370.606 496.735C361.285 496.735 363.615 496.153 354.627 496.153C345.64 496.153 347.304 497.939 338.649 497.939C329.994 497.939 331.991 498.313 322.671 498.313C313.35 498.313 316.013 497.327 306.692 497.327C297.372 497.327 298.703 496.8 290.714 496.8C282.725 496.8 282.725 498.513 274.736 498.513C266.746 498.513 267.412 497.909 258.757 497.909" stroke="#2F80ED" stroke-width="0.665765"/>
</g>
<rect x="769" y="354" width="33" height="22" rx="8" fill="#E4E4E4"/>
<rect x="565" y="354" width="106" height="22" rx="8" fill="#F9704A"/>
<path d="M548.5 519C548.5 514.858 551.858 511.5 556 511.5H812C816.142 511.5 819.5 514.858 819.5 519V581.5H548.5V519Z" fill="white" stroke="#EBEBEB"/>
<path d="M265.5 519C265.5 514.858 268.858 511.5 273 511.5H529C533.142 511.5 536.5 514.858 536.5 519V581.5H265.5V519Z" fill="white" stroke="#EBEBEB"/>
<path fill-rule="evenodd" clip-rule="evenodd" d="M320 524.026C320 524.026 320 524.026 320 524.026C313.656 524.026 307.912 526.597 303.755 530.755L300.256 527.256C305.309 522.189 312.29 519 320 519V524.026Z" fill="#CFD8DC"/>
<path fill-rule="evenodd" clip-rule="evenodd" d="M297.026 547H292C292 539.29 295.19 532.309 300.257 527.256L303.755 530.755C299.597 534.912 297.026 540.656 297.026 547Z" fill="#CFD8DC"/>
<path fill-rule="evenodd" clip-rule="evenodd" d="M297.026 547H292C292 554.71 295.19 561.691 300.257 566.744L303.755 563.245C299.597 559.088 297.026 553.344 297.026 547Z" fill="#CFD8DC"/>
<path fill-rule="evenodd" clip-rule="evenodd" d="M320 569.974C320 569.974 320 569.974 320 569.974C313.656 569.974 307.912 567.403 303.755 563.245L300.256 566.743C305.309 571.81 312.29 575 320 575V569.974Z" fill="#F9704A"/>
<path fill-rule="evenodd" clip-rule="evenodd" d="M320 569.974C320 569.974 320 569.974 320 569.974C326.344 569.974 332.088 567.403 336.245 563.245L339.744 566.743C334.691 571.81 327.71 575 320 575V569.974Z" fill="#F9704A"/>
<path fill-rule="evenodd" clip-rule="evenodd" d="M342.974 547H348C348 554.71 344.811 561.691 339.744 566.744L336.245 563.245C340.403 559.088 342.974 553.344 342.974 547Z" fill="#F9704A"/>
<path fill-rule="evenodd" clip-rule="evenodd" d="M342.974 547H348C348 539.29 344.811 532.309 339.744 527.256L336.245 530.755C340.403 534.912 342.974 540.656 342.974 547Z" fill="#F9704A"/>
<path fill-rule="evenodd" clip-rule="evenodd" d="M320 524.026C320 524.026 320 524.026 320 524.026C326.344 524.026 332.088 526.597 336.245 530.755L339.744 527.256C334.691 522.189 327.71 519 320 519V524.026Z" fill="#F9704A"/>
<path fill-rule="evenodd" clip-rule="evenodd" d="M398 524.026C398 524.026 398 524.026 398 524.026C391.656 524.026 385.912 526.597 381.755 530.755L378.256 527.256C383.309 522.189 390.29 519 398 519V524.026Z" fill="#CFD8DC"/>
<path fill-rule="evenodd" clip-rule="evenodd" d="M375.026 547H370C370 539.29 373.19 532.309 378.257 527.256L381.755 530.755C377.597 534.912 375.026 540.656 375.026 547Z" fill="#CFD8DC"/>
<path fill-rule="evenodd" clip-rule="evenodd" d="M375.026 547H370C370 554.71 373.19 561.691 378.257 566.744L381.755 563.245C377.597 559.088 375.026 553.344 375.026 547Z" fill="#CFD8DC"/>
<path fill-rule="evenodd" clip-rule="evenodd" d="M398 569.974C398 569.974 398 569.974 398 569.974C391.656 569.974 385.912 567.403 381.755 563.245L378.256 566.743C383.309 571.81 390.29 575 398 575V569.974Z" fill="#CFD8DC"/>
<path fill-rule="evenodd" clip-rule="evenodd" d="M398 569.974C398 569.974 398 569.974 398 569.974C404.344 569.974 410.088 567.403 414.245 563.245L417.744 566.743C412.691 571.81 405.71 575 398 575V569.974Z" fill="#CFD8DC"/>
<path fill-rule="evenodd" clip-rule="evenodd" d="M420.974 547H426C426 554.71 422.811 561.691 417.744 566.744L414.245 563.245C418.403 559.088 420.974 553.344 420.974 547Z" fill="#CFD8DC"/>
<path fill-rule="evenodd" clip-rule="evenodd" d="M420.974 547H426C426 539.29 422.811 532.309 417.744 527.256L414.245 530.755C418.403 534.912 420.974 540.656 420.974 547Z" fill="#CFD8DC"/>
<path fill-rule="evenodd" clip-rule="evenodd" d="M398 524.026C398 524.026 398 524.026 398 524.026C404.344 524.026 410.088 526.597 414.245 530.755L417.744 527.256C412.691 522.189 405.71 519 398 519V524.026Z" fill="#F9704A"/>
<path fill-rule="evenodd" clip-rule="evenodd" d="M472 524.026C472 524.026 472 524.026 472 524.026C465.656 524.026 459.912 526.597 455.755 530.755L452.256 527.256C457.309 522.189 464.29 519 472 519V524.026Z" fill="#CFD8DC"/>
<path fill-rule="evenodd" clip-rule="evenodd" d="M449.026 547H444C444 539.29 447.19 532.309 452.257 527.256L455.755 530.755C451.597 534.912 449.026 540.656 449.026 547Z" fill="#CFD8DC"/>
<path fill-rule="evenodd" clip-rule="evenodd" d="M449.026 547H444C444 554.71 447.19 561.691 452.257 566.744L455.755 563.245C451.597 559.088 449.026 553.344 449.026 547Z" fill="#CFD8DC"/>
<path fill-rule="evenodd" clip-rule="evenodd" d="M472 569.974C472 569.974 472 569.974 472 569.974C465.656 569.974 459.912 567.403 455.755 563.245L452.256 566.743C457.309 571.81 464.29 575 472 575V569.974Z" fill="#CFD8DC"/>
<path fill-rule="evenodd" clip-rule="evenodd" d="M472 569.974C472 569.974 472 569.974 472 569.974C478.344 569.974 484.088 567.403 488.245 563.245L491.744 566.743C486.691 571.81 479.71 575 472 575V569.974Z" fill="#CFD8DC"/>
<path fill-rule="evenodd" clip-rule="evenodd" d="M494.974 547H500C500 554.71 496.811 561.691 491.744 566.744L488.245 563.245C492.403 559.088 494.974 553.344 494.974 547Z" fill="#F9704A"/>
<path fill-rule="evenodd" clip-rule="evenodd" d="M494.974 547H500C500 539.29 496.811 532.309 491.744 527.256L488.245 530.755C492.403 534.912 494.974 540.656 494.974 547Z" fill="#F9704A"/>
<path fill-rule="evenodd" clip-rule="evenodd" d="M472 524.026C472 524.026 472 524.026 472 524.026C478.344 524.026 484.088 526.597 488.245 530.755L491.744 527.256C486.691 522.189 479.71 519 472 519V524.026Z" fill="#F9704A"/>
<g filter="url(#filter2_d)">
<path d="M658 44C658 39.5817 661.582 36 666 36H922C926.418 36 930 39.5817 930 44V99C930 103.418 926.418 107 922 107H666C661.582 107 658 103.418 658 99V44Z" fill="white"/>
<path d="M658.5 44C658.5 39.8579 661.858 36.5 666 36.5H922C926.142 36.5 929.5 39.8579 929.5 44V99C929.5 103.142 926.142 106.5 922 106.5H666C661.858 106.5 658.5 103.142 658.5 99V44Z" stroke="#EBEBEB"/>
</g>
<g filter="url(#filter3_d)">
<path fill-rule="evenodd" clip-rule="evenodd" d="M713 49.0256C713 49.0256 713 49.0256 713 49.0256C706.656 49.0256 700.912 51.5971 696.755 55.7546L693.256 52.2564C698.309 47.1894 705.29 44 713 44V49.0256Z" fill="#CFD8DC"/>
<path fill-rule="evenodd" clip-rule="evenodd" d="M690.026 72.0001H685C685 64.2897 688.19 57.3093 693.257 52.2565L696.755 55.7548C692.597 59.9123 690.026 65.6559 690.026 72.0001Z" fill="#CFD8DC"/>
<path fill-rule="evenodd" clip-rule="evenodd" d="M690.026 71.9999H685C685 79.7103 688.19 86.6907 693.257 91.7435L696.755 88.2452C692.597 84.0877 690.026 78.3441 690.026 71.9999Z" fill="#CFD8DC"/>
<path fill-rule="evenodd" clip-rule="evenodd" d="M713 94.9742C713 94.9742 713 94.9742 713 94.9742C706.656 94.9742 700.912 92.4028 696.755 88.2452L693.256 91.7434C698.309 96.8104 705.29 99.9999 713 99.9999V94.9742Z" fill="#F9704A"/>
<path fill-rule="evenodd" clip-rule="evenodd" d="M713 94.9742C713 94.9742 713 94.9742 713 94.9742C719.344 94.9742 725.088 92.4028 729.245 88.2452L732.744 91.7434C727.691 96.8104 720.71 99.9999 713 99.9999V94.9742Z" fill="#F9704A"/>
<path fill-rule="evenodd" clip-rule="evenodd" d="M735.974 71.9999H741C741 79.7103 737.811 86.6907 732.744 91.7435L729.245 88.2452C733.403 84.0877 735.974 78.3441 735.974 71.9999Z" fill="#F9704A"/>
<path fill-rule="evenodd" clip-rule="evenodd" d="M735.974 72.0001H741C741 64.2897 737.811 57.3093 732.744 52.2565L729.245 55.7548C733.403 59.9123 735.974 65.6559 735.974 72.0001Z" fill="#F9704A"/>
<path fill-rule="evenodd" clip-rule="evenodd" d="M713 49.0256C713 49.0256 713 49.0256 713 49.0256C719.344 49.0256 725.088 51.5971 729.245 55.7546L732.744 52.2564C727.691 47.1894 720.71 44 713 44V49.0256Z" fill="#F9704A"/>
</g>
<g filter="url(#filter4_d)">
<path fill-rule="evenodd" clip-rule="evenodd" d="M791 49.0256C791 49.0256 791 49.0256 791 49.0256C784.656 49.0256 778.912 51.5971 774.755 55.7546L771.256 52.2564C776.309 47.1894 783.29 44 791 44V49.0256Z" fill="#CFD8DC"/>
<path fill-rule="evenodd" clip-rule="evenodd" d="M768.026 72.0001H763C763 64.2897 766.19 57.3093 771.257 52.2565L774.755 55.7548C770.597 59.9123 768.026 65.6559 768.026 72.0001Z" fill="#CFD8DC"/>
<path fill-rule="evenodd" clip-rule="evenodd" d="M768.026 71.9999H763C763 79.7103 766.19 86.6907 771.257 91.7435L774.755 88.2452C770.597 84.0877 768.026 78.3441 768.026 71.9999Z" fill="#CFD8DC"/>
<path fill-rule="evenodd" clip-rule="evenodd" d="M791 94.9742C791 94.9742 791 94.9742 791 94.9742C784.656 94.9742 778.912 92.4028 774.755 88.2452L771.256 91.7434C776.309 96.8104 783.29 99.9999 791 99.9999V94.9742Z" fill="#CFD8DC"/>
<path fill-rule="evenodd" clip-rule="evenodd" d="M791 94.9742C791 94.9742 791 94.9742 791 94.9742C797.344 94.9742 803.088 92.4028 807.245 88.2452L810.744 91.7434C805.691 96.8104 798.71 99.9999 791 99.9999V94.9742Z" fill="#CFD8DC"/>
<path fill-rule="evenodd" clip-rule="evenodd" d="M813.974 71.9999H819C819 79.7103 815.811 86.6907 810.744 91.7435L807.245 88.2452C811.403 84.0877 813.974 78.3441 813.974 71.9999Z" fill="#CFD8DC"/>
<path fill-rule="evenodd" clip-rule="evenodd" d="M813.974 72.0001H819C819 64.2897 815.811 57.3093 810.744 52.2565L807.245 55.7548C811.403 59.9123 813.974 65.6559 813.974 72.0001Z" fill="#CFD8DC"/>
<path fill-rule="evenodd" clip-rule="evenodd" d="M791 49.0256C791 49.0256 791 49.0256 791 49.0256C797.344 49.0256 803.088 51.5971 807.245 55.7546L810.744 52.2564C805.691 47.1894 798.71 44 791 44V49.0256Z" fill="#F9704A"/>
</g>
<g filter="url(#filter5_d)">
<path fill-rule="evenodd" clip-rule="evenodd" d="M865 49.0256C865 49.0256 865 49.0256 865 49.0256C858.656 49.0256 852.912 51.5971 848.755 55.7546L845.256 52.2564C850.309 47.1894 857.29 44 865 44V49.0256Z" fill="#CFD8DC"/>
<path fill-rule="evenodd" clip-rule="evenodd" d="M842.026 72.0001H837C837 64.2897 840.19 57.3093 845.257 52.2565L848.755 55.7548C844.597 59.9123 842.026 65.6559 842.026 72.0001Z" fill="#CFD8DC"/>
<path fill-rule="evenodd" clip-rule="evenodd" d="M842.026 71.9999H837C837 79.7103 840.19 86.6907 845.257 91.7435L848.755 88.2452C844.597 84.0877 842.026 78.3441 842.026 71.9999Z" fill="#CFD8DC"/>
<path fill-rule="evenodd" clip-rule="evenodd" d="M865 94.9742C865 94.9742 865 94.9742 865 94.9742C858.656 94.9742 852.912 92.4028 848.755 88.2452L845.256 91.7434C850.309 96.8104 857.29 99.9999 865 99.9999V94.9742Z" fill="#CFD8DC"/>
<path fill-rule="evenodd" clip-rule="evenodd" d="M865 94.9742C865 94.9742 865 94.9742 865 94.9742C871.344 94.9742 877.088 92.4028 881.245 88.2452L884.744 91.7434C879.691 96.8104 872.71 99.9999 865 99.9999V94.9742Z" fill="#CFD8DC"/>
<path fill-rule="evenodd" clip-rule="evenodd" d="M887.974 71.9999H893C893 79.7103 889.811 86.6907 884.744 91.7435L881.245 88.2452C885.403 84.0877 887.974 78.3441 887.974 71.9999Z" fill="#F9704A"/>
<path fill-rule="evenodd" clip-rule="evenodd" d="M887.974 72.0001H893C893 64.2897 889.811 57.3093 884.744 52.2565L881.245 55.7548C885.403 59.9123 887.974 65.6559 887.974 72.0001Z" fill="#F9704A"/>
<path fill-rule="evenodd" clip-rule="evenodd" d="M865 49.0256C865 49.0256 865 49.0256 865 49.0256C871.344 49.0256 877.088 51.5971 881.245 55.7546L884.744 52.2564C879.691 47.1894 872.71 44 865 44V49.0256Z" fill="#F9704A"/>
</g>
<rect x="763" y="519" width="39" height="22" rx="8" fill="#E4E4E4"/>
<rect x="565" y="519" width="137" height="22" rx="8" fill="#F9704A"/>
<path d="M135.086 165.444H127.753C125.593 165.444 123.842 167.196 123.842 169.356V189.644C123.842 191.805 125.593 193.556 127.753 193.556H135.086C137.246 193.556 138.997 191.805 138.997 189.644V169.356C138.997 167.196 137.246 165.444 135.086 165.444Z" fill="#009242"/>
<path d="M147.247 177.117H144.375C142.215 177.117 140.464 178.868 140.464 181.028V189.736C140.464 191.896 142.215 193.647 144.375 193.647H147.247C149.407 193.647 151.158 191.896 151.158 189.736V181.028C151.158 178.868 149.407 177.117 147.247 177.117Z" fill="#1A6AE3"/>
<path d="M148.653 165.444H142.969C141.586 165.444 140.464 166.566 140.464 167.95C140.464 169.334 141.586 170.456 142.969 170.456H148.653C150.037 170.456 151.158 169.334 151.158 167.95C151.158 166.566 150.037 165.444 148.653 165.444Z" fill="#FFC71E"/>
<path d="M148.653 171.281H142.969C141.586 171.281 140.464 172.402 140.464 173.786C140.464 175.17 141.586 176.292 142.969 176.292H148.653C150.037 176.292 151.158 175.17 151.158 173.786C151.158 172.402 150.037 171.281 148.653 171.281Z" fill="#F94E1E"/>
<defs>
<filter id="filter0_d" x="96" y="80" width="807" height="516" filterUnits="userSpaceOnUse" color-interpolation-filters="sRGB">
<feFlood flood-opacity="0" result="BackgroundImageFix"/>
<feColorMatrix in="SourceAlpha" type="matrix" values="0 0 0 0 0 0 0 0 0 0 0 0 0 0 0 0 0 0 127 0" result="hardAlpha"/>
<feOffset dy="4"/>
<feGaussianBlur stdDeviation="2"/>
<feComposite in2="hardAlpha" operator="out"/>
<feColorMatrix type="matrix" values="0 0 0 0 0 0 0 0 0 0 0 0 0 0 0 0 0 0 0.25 0"/>
<feBlend mode="normal" in2="BackgroundImageFix" result="effect1_dropShadow"/>
<feBlend mode="normal" in="SourceGraphic" in2="effect1_dropShadow" result="shape"/>
</filter>
<filter id="filter1_d" x="833" y="212" width="120" height="45" filterUnits="userSpaceOnUse" color-interpolation-filters="sRGB">
<feFlood flood-opacity="0" result="BackgroundImageFix"/>
<feColorMatrix in="SourceAlpha" type="matrix" values="0 0 0 0 0 0 0 0 0 0 0 0 0 0 0 0 0 0 127 0" result="hardAlpha"/>
<feOffset dy="4"/>
<feGaussianBlur stdDeviation="2"/>
<feComposite in2="hardAlpha" operator="out"/>
<feColorMatrix type="matrix" values="0 0 0 0 0 0 0 0 0 0 0 0 0 0 0 0 0 0 0.08 0"/>
<feBlend mode="normal" in2="BackgroundImageFix" result="effect1_dropShadow"/>
<feBlend mode="normal" in="SourceGraphic" in2="effect1_dropShadow" result="shape"/>
</filter>
<filter id="filter2_d" x="654" y="36" width="280" height="79" filterUnits="userSpaceOnUse" color-interpolation-filters="sRGB">
<feFlood flood-opacity="0" result="BackgroundImageFix"/>
<feColorMatrix in="SourceAlpha" type="matrix" values="0 0 0 0 0 0 0 0 0 0 0 0 0 0 0 0 0 0 127 0" result="hardAlpha"/>
<feOffset dy="4"/>
<feGaussianBlur stdDeviation="2"/>
<feComposite in2="hardAlpha" operator="out"/>
<feColorMatrix type="matrix" values="0 0 0 0 0 0 0 0 0 0 0 0 0 0 0 0 0 0 0.08 0"/>
<feBlend mode="normal" in2="BackgroundImageFix" result="effect1_dropShadow"/>
<feBlend mode="normal" in="SourceGraphic" in2="effect1_dropShadow" result="shape"/>
</filter>
<filter id="filter3_d" x="681" y="14.8092" width="64.0002" height="93.1908" filterUnits="userSpaceOnUse" color-interpolation-filters="sRGB">
<feFlood flood-opacity="0" result="BackgroundImageFix"/>
<feColorMatrix in="SourceAlpha" type="matrix" values="0 0 0 0 0 0 0 0 0 0 0 0 0 0 0 0 0 0 127 0" result="hardAlpha"/>
<feOffset dy="4"/>
<feGaussianBlur stdDeviation="2"/>
<feComposite in2="hardAlpha" operator="out"/>
<feColorMatrix type="matrix" values="0 0 0 0 0 0 0 0 0 0 0 0 0 0 0 0 0 0 0.08 0"/>
<feBlend mode="normal" in2="BackgroundImageFix" result="effect1_dropShadow"/>
<feBlend mode="normal" in="SourceGraphic" in2="effect1_dropShadow" result="shape"/>
</filter>
<filter id="filter4_d" x="759" y="14.8092" width="64.0002" height="93.1908" filterUnits="userSpaceOnUse" color-interpolation-filters="sRGB">
<feFlood flood-opacity="0" result="BackgroundImageFix"/>
<feColorMatrix in="SourceAlpha" type="matrix" values="0 0 0 0 0 0 0 0 0 0 0 0 0 0 0 0 0 0 127 0" result="hardAlpha"/>
<feOffset dy="4"/>
<feGaussianBlur stdDeviation="2"/>
<feComposite in2="hardAlpha" operator="out"/>
<feColorMatrix type="matrix" values="0 0 0 0 0 0 0 0 0 0 0 0 0 0 0 0 0 0 0.08 0"/>
<feBlend mode="normal" in2="BackgroundImageFix" result="effect1_dropShadow"/>
<feBlend mode="normal" in="SourceGraphic" in2="effect1_dropShadow" result="shape"/>
</filter>
<filter id="filter5_d" x="833" y="14.8092" width="64.0002" height="93.1908" filterUnits="userSpaceOnUse" color-interpolation-filters="sRGB">
<feFlood flood-opacity="0" result="BackgroundImageFix"/>
<feColorMatrix in="SourceAlpha" type="matrix" values="0 0 0 0 0 0 0 0 0 0 0 0 0 0 0 0 0 0 127 0" result="hardAlpha"/>
<feOffset dy="4"/>
<feGaussianBlur stdDeviation="2"/>
<feComposite in2="hardAlpha" operator="out"/>
<feColorMatrix type="matrix" values="0 0 0 0 0 0 0 0 0 0 0 0 0 0 0 0 0 0 0.08 0"/>
<feBlend mode="normal" in2="BackgroundImageFix" result="effect1_dropShadow"/>
<feBlend mode="normal" in="SourceGraphic" in2="effect1_dropShadow" result="shape"/>
</filter>
<clipPath id="clip0">
<rect width="268" height="84.5692" fill="white" transform="matrix(-1 0 0 1 818 413.431)"/>
</clipPath>
<clipPath id="clip1">
<rect width="268" height="84.6094" fill="white" transform="matrix(-1 0 0 1 818 413.391)"/>
</clipPath>
<clipPath id="clip2">
<rect width="268" height="11.5726" fill="white" transform="matrix(-1 0 0 1 818 487.427)"/>
</clipPath>
<clipPath id="clip3">
<rect width="268" height="11.5781" fill="white" transform="matrix(-1 0 0 1 818 487.422)"/>
</clipPath>
</defs>
</svg>
