<svg width="26" height="26" viewBox="0 0 26 26" fill="none" xmlns="http://www.w3.org/2000/svg">
<circle cx="13" cy="13" r="12" stroke="#040906" stroke-width="2"/>
<path d="M13 11.6491C14.3138 11.6491 15.3789 10.584 15.3789 9.2702C15.3789 7.95637 14.3138 6.8913 13 6.8913C11.6862 6.8913 10.6211 7.95637 10.6211 9.2702C10.6211 10.584 11.6862 11.6491 13 11.6491Z" fill="#040906"/>
<path d="M13.6509 12.5906C12.4553 12.4908 11.4161 12.5917 10.5198 13.3316C9.01976 14.5331 9.30843 16.1508 9.30843 18.1298C9.30843 18.6535 9.73445 19.0874 10.266 19.0874C16.0378 19.0874 16.2675 19.2736 16.6098 18.5157C16.722 18.2594 16.6912 18.3408 16.6912 15.8888C16.6912 13.9412 15.0049 12.5906 13.6509 12.5906Z" fill="#040906"/>
</svg>
