<svg width="100%" height="100%" viewBox="0 0 196 60" fill="none" xmlns="http://www.w3.org/2000/svg">
<path d="M69.8264 0.432141V4.74692H61.2234V8.16417H69.0618V12.1332H61.2234V19.5461H56.5829V2.95186C56.5829 2.73247 56.6693 2.52637 56.8288 2.37346L58.5308 0.67813C58.6837 0.525218 58.8965 0.432141 59.1159 0.432141H69.8264Z" fill="currentColor"></path>
<path d="M72.2277 9.99246C72.2277 4.48098 76.3231 0 82.4063 0C88.4896 0 92.565 4.48098 92.565 9.99246C92.565 15.5039 88.4962 19.9849 82.4063 19.9849C76.3165 19.9849 72.2277 15.5039 72.2277 9.99246ZM87.8181 9.99246C87.8181 7.0406 85.91 4.39456 82.413 4.39456C78.916 4.39456 76.9813 7.0406 76.9813 9.99246C76.9813 12.9443 78.8894 15.597 82.413 15.597C85.93 15.597 87.8181 12.9443 87.8181 9.99246Z" fill="currentColor"></path>
<path d="M110.941 19.5461H105.662L100.204 10.8634V19.5461H95.6228V0.432141H102.969C106.925 0.432141 110.229 2.34022 110.229 6.30263C110.229 9.25449 108.401 11.023 105.861 11.7343L110.941 19.5461ZM100.21 8.54312H102.723C104.226 8.54312 105.542 7.91153 105.542 6.41565C105.542 4.91977 104.239 4.28818 102.723 4.28818H100.21V8.54312Z" fill="currentColor"></path>
<path d="M128.521 0.352363L132.696 11.5482L136.764 0.432143H141.791L134.497 19.6326H131.167L126.852 8.08439L122.557 19.6326H119.233L111.946 0.432143H116.999L121.048 11.5482L125.216 0.352363H128.521Z" fill="currentColor"></path>
<path d="M146.755 0.352363H150.139L158.224 19.5461H153.284L152.081 16.6541H144.821L143.651 19.5461H138.711L146.755 0.352363ZM150.658 12.8047L148.451 7.36637L146.263 12.8047H150.658Z" fill="currentColor"></path>
<path d="M175.67 19.5461H170.398L164.933 10.8634V19.5461H160.346V0.432141H167.692C171.648 0.432141 174.952 2.34022 174.952 6.30263C174.952 9.25449 173.124 11.023 170.584 11.7343L175.67 19.5461ZM164.94 8.54312H167.453C168.955 8.54312 170.272 7.91153 170.272 6.41565C170.272 4.91977 168.968 4.28818 167.453 4.28818H164.94V8.54312Z" fill="currentColor"></path>
<path d="M178.017 0.432141H185.882C191.805 0.432141 195.801 4.31477 195.801 9.99246C195.801 15.6701 191.812 19.5461 185.888 19.5461H178.017V0.432141ZM185.33 15.2646C189.179 15.2646 191.034 13.2435 191.034 10.0191C191.034 6.79461 189.179 4.72697 185.33 4.72697H182.677V15.2646H185.33Z" fill="currentColor"></path>
<path d="M65.239 25.5097C69.2546 25.5097 71.9405 28.1424 71.9405 32.0517C71.9405 35.9609 69.2546 38.6734 65.239 38.6734H61.1968V41.5588C61.1968 41.8048 61.1104 42.0375 60.9508 42.2236L59.1358 44.0586C58.8898 44.3445 58.5308 44.5107 58.1519 44.5107H56.5829V25.5097H65.239ZM67.2468 32.0783C67.2468 30.6688 66.3227 29.6982 64.4279 29.6982H61.1902V34.4783H64.4212C66.3227 34.465 67.2468 33.5143 67.2468 32.0783Z" fill="currentColor"></path>
<path d="M79.2945 25.4299H82.6586L90.6898 44.4974H85.7767L84.58 41.6253H77.3599L76.1898 44.5107H71.2833L79.2945 25.4299ZM83.1772 37.8025L80.9832 32.404L78.8159 37.8025H83.1772Z" fill="currentColor"></path>
<path d="M108.029 44.504H102.79L97.3714 35.8745V44.504H92.8239V25.5097H100.124C104.06 25.5097 107.344 27.4045 107.344 31.3403C107.344 34.2722 105.529 36.034 103.009 36.7388L108.029 44.504ZM97.3647 33.5675H99.8579C101.347 33.5675 102.65 32.9425 102.65 31.4533C102.65 29.9641 101.347 29.3391 99.8579 29.3391H97.3647V33.5675Z" fill="currentColor"></path>
<path d="M109.631 29.6849V25.5163H125.015V29.6849H119.643V44.4974H115.01V29.6849H109.631Z" fill="currentColor"></path>
<path d="M132.747 33.7337V44.504H128.107V25.4366H131.418L140.373 36.2933L140.4 25.523H145.014V44.5904H141.703L132.747 33.7337Z" fill="currentColor"></path>
<path d="M161.534 25.5097V29.7979H153.084V33.0489H160.709V36.8784H153.097V40.2158H161.547V44.504H148.483V25.5097H161.534Z" fill="currentColor"></path>
<path d="M180.151 44.504H174.912L169.494 35.8745V44.504H164.946V25.5097H172.246C176.182 25.5097 179.466 27.4045 179.466 31.3403C179.466 34.2722 177.651 36.034 175.131 36.7388L180.151 44.504ZM169.487 33.5675H171.98C173.476 33.5675 174.772 32.9425 174.772 31.4533C174.772 29.9641 173.469 29.3391 171.98 29.3391H169.487V33.5675Z" fill="currentColor"></path>
<path d="M180.995 40.1095L184.93 38.1814C185.416 39.7637 186.885 40.8341 188.54 40.8142C190.036 40.8142 191.359 40.2424 191.359 38.7798C191.359 37.5831 190.276 37.0446 188.76 36.6124L186.646 36.0141C183.853 35.2296 182.058 33.521 182.058 30.6156C182.058 27.1718 185.043 25.0776 188.487 25.0776C191.067 25.0776 193.753 26.3274 194.65 28.794L190.934 30.609C190.555 29.6317 189.597 29.0001 188.554 29.0333C187.603 29.0333 186.705 29.4921 186.705 30.4428C186.705 31.3935 187.603 31.8522 188.74 32.178L190.801 32.7497C193.892 33.5874 196 35.3825 196 38.5803C196 42.5693 192.496 44.9295 188.514 44.9295C185.176 44.9362 181.912 43.2009 180.995 40.1095Z" fill="currentColor"></path>
<path d="M42.6225 21.9528L36.2202 15.5505C35.6218 14.9521 34.8772 14.5599 34.0661 14.407C35.429 13.064 37.3172 11.2025 38.1017 10.4113C39.6707 8.829 39.6707 7.53257 39.6707 6.58186V2.70588C39.6707 1.50253 38.6934 0.525221 37.4834 0.525221H11.0296C9.4606 0.525221 8.76917 0.578407 7.44615 1.90143L1.37621 7.97137C0.491977 8.86224 0 10.039 0 11.2955L0.00664834 40.3421C0.00664834 42.3765 1.68203 44.6436 4.08208 44.6436H6.12977C7.48604 44.6436 8.53648 44.2514 9.34093 43.4469L13.8153 38.9659V54.922C13.8153 57.3287 15.8364 59.4362 18.1433 59.4362H20.1511C21.2016 59.4362 22.4781 58.9176 23.1894 58.2129L29.7314 51.7241C30.9547 50.5008 30.9414 49.4038 30.9347 48.5994V48.4265L30.9414 44.5107H33.0223C33.8467 44.5107 35.1764 44.2115 36.1936 43.3671C36.9648 42.7289 42.0175 37.5631 42.5893 36.9781C43.6198 35.9476 43.9057 35.2628 43.9057 33.7869L43.919 25.5429V25.2637C43.9389 24.3396 43.9522 23.2825 42.6225 21.9528ZM8.0312 42.1306C7.57911 42.5826 6.99406 42.7821 6.13642 42.7821H4.08208C2.85879 42.7821 1.86818 41.4458 1.86818 40.3421L1.86154 11.2955C1.86154 10.5376 2.15406 9.82625 2.69258 9.28774L8.76252 3.2178C9.58691 2.39341 9.69994 2.38676 11.0363 2.38676C11.0429 2.38676 11.0495 2.38676 11.0562 2.38676H37.49C37.6695 2.38676 37.8158 2.52637 37.8158 2.70588V6.58186C37.8158 7.4129 37.8158 8.06444 36.7853 9.10158C35.695 10.1986 32.4572 13.3898 31.4932 14.3338H17.9572C16.0823 14.3338 13.8219 16.0292 13.8219 18.1367V36.3265L8.0312 42.1306ZM26.2809 16.202V21.8731C26.2809 22.631 25.9884 23.3423 25.4499 23.8809L22.026 27.3047C21.4875 27.8433 20.816 28.1358 20.1179 28.1358H15.6834V18.1433C15.6834 17.2724 16.94 16.202 17.9572 16.202H26.2809ZM42.0641 25.2438L42.0508 33.7935C42.0508 34.8107 41.9245 35.0301 41.2729 35.675C39.0457 37.9554 35.542 41.499 35.0168 41.9378C34.4451 42.4098 33.5874 42.6558 33.029 42.6558H30.0173C29.5054 42.6558 29.0865 43.0746 29.0865 43.5865L29.0799 48.4332V48.6193C29.0865 49.2908 29.0865 49.7363 28.4217 50.4077L21.8797 56.8965C21.5539 57.2223 20.7694 57.5813 20.1578 57.5813H18.15C16.8801 57.5813 15.6834 56.2915 15.6834 54.9286V29.9973H20.1179C21.3079 29.9973 22.4515 29.512 23.3423 28.6211L26.7662 25.1972C27.6505 24.313 28.1424 23.1296 28.1424 21.8731V16.202H33.2883C33.8999 16.202 34.4783 16.4414 34.9105 16.8735L41.3062 23.2692C42.0774 24.0471 42.0774 24.4194 42.0641 25.2438Z" fill="currentColor"></path>
</svg>