<svg id="logo-svg" version="1.1" xmlns="http://www.w3.org/2000/svg" xmlns:xlink="http://www.w3.org/1999/xlink" x="0px" y="0px" viewBox="0 0 1884.3 220.6" style="enable-background:new 0 0 1884.3 220.6;" xml:space="preserve">
<style type="text/css">
	#logo-svg .st0ov{fill:#1B073A;}
</style>
<g>
	<path class="st0ov" d="M143.1,99.6c0,38.6-28.4,69.9-72.3,69.9c-39.9,0-70.8-30.4-70.8-69c0-40.6,31.6-69,71.6-69
		S143.1,60.9,143.1,99.6z M71.5,143.4c23.7,0,40.6-19.2,40.6-42.9S97,57.6,71.5,57.6c-25,0-40.6,19.2-40.6,42.9
		S47.6,143.4,71.5,143.4z"></path>
	<path class="st0ov" d="M490.1,99.6c0,38.6-28.4,69.9-72.3,69.9c-39.9,0-70.8-30.4-70.8-69c0-40.6,31.6-69,71.6-69
		C458.5,31.5,490.1,60.9,490.1,99.6z M418.5,143.4c23.7,0,40.6-19.2,40.6-42.9S444,57.6,418.5,57.6c-25,0-40.6,19.2-40.6,42.9
		S394.6,143.4,418.5,143.4z"></path>
	<path class="st0ov" d="M648,113.3c0,0,0-52.8,0-66.5c2.5-19.1,29.5-8.9,29.5-8.9v71.3l0,0c0,22.2,15.2,33.1,34,33.1s34-10.5,34-33.1
		c0,0,0.1-48.7,0.1-62.4c2.5-19.1,29.5-8.9,29.5-8.9v45.8c3.8,56.5,57.9,60.7,57.9,60.7c53.8,7.4,49.1-14.6,49.1-14.6
		c-1.4-11.1-9.7-13.6-24-15.5c-8.9-1.1-16.6-1.9-16.6-1.9c-57.7-3.6-52-41.7-52-41.7c0.7-32.2,35.2-37.1,35.2-37.1
		c30.4-5.4,51.9-0.1,51.9-0.1c47.3,9.9,24,32.3,20.1,33.6c0,0-12.6-11.5-42.1-13.2c-36.3-2.3-35.7,14.8-35.7,14.8
		c-1.2,12.5,14.8,14.8,14.8,14.8l38.9,5.4c46,6.4,40.4,39,40.4,39c-3,40.8-51.6,41.1-51.6,41.1c-66.5,3.9-91.5-30.7-91.5-30.7
		c-9.3,18.5-27.9,30.9-58.9,30.9c-36.9,0-62.9-20.7-62.9-57.8"></path>
	<path class="st0ov" d="M215.8,33.7c-53.2,3.8-65.3,53.2-64,67.6c-0.7,21.7,14.4,68.2,73.2,68.2c7.7-0.1,14.8-0.8,21.3-2v-26.3
		c-5.6,1-12.4,1.6-20.6,1.8c-27.4,0.7-43-21.8-42.9-41.6c0-23,18.8-41.9,42.9-41.6h47.5l0.1,65.1c0,0-3.4,55.1,66.2,43.6v-26.2
		c-38.6,8.3-36.6-16-36.6-16V60h36.6V34H303V3.3h-29.7V34L215.8,33.7z"></path>
	<path class="st0ov" d="M528.3,209c-2.5,19.1-29.5,8.9-29.5,8.9V100.5c1.7-37.4,24.1-67.9,70.2-69c40.7-0.9,70,29.4,70.2,68
		c0.3,40.9-28.4,71.3-70.8,69.5c-15.1-0.8-29.9-6.8-40.1-19.9C528.4,149.2,528.3,195.4,528.3,209z M568.3,143.6
		c23.5,0,40.2-19.2,40.2-42.9s-15-42.9-40.2-42.9c-24.7,0-40.2,19.2-40.2,42.9S544.7,143.6,568.3,143.6z"></path>
</g>
<g>
	<path class="st0ov" d="M1325.6,49.9c-10.1-10.6-24.7-16.7-40.2-16.7l0,0c-15.4,0-30.1,6.1-40.2,16.7c-9.6,10.3-14.1,23.6-14.1,41.9
		v73h7.8v-73c0-16.2,3.9-28,12.4-37c8.3-8.9,21.4-14.4,34.1-14.4s25.8,5.5,34.1,14.4c8.5,9.1,12.4,20.9,12.4,37v73h7.8v-73
		C1339.7,73.5,1335.2,60.2,1325.6,49.9z"></path>
	<path class="st0ov" d="M1554.7,36.1v73c0,16.2-3.9,28-12.4,37c-8.3,8.9-21.4,14.4-34.1,14.4s-25.8-5.5-34.1-14.4
		c-8.5-9.1-12.4-20.9-12.4-37v-73h-7.8v73c0,18.3,4.5,31.6,14.1,41.9c10.1,10.6,24.7,16.7,40.2,16.7l0,0c15.4,0,30.1-6.1,40.2-16.7
		c9.6-10.3,14.1-23.6,14.1-41.9v-73L1554.7,36.1L1554.7,36.1z"></path>
	<path class="st0ov" d="M1649.3,33.2c-15.5,0-30.1,6.1-40.2,16.7c-9.6,10.3-14.1,23.6-14.1,41.9v73h7.8v-73c0-16.2,3.9-28,12.4-37
		c8.3-8.9,21.4-14.4,34.1-14.4h1v-7.2L1649.3,33.2L1649.3,33.2z"></path>
	<path class="st0ov" d="M1432.6,43.3v-7.2h-51.8V0h-7.8v109.1c0,18.3,4.5,31.6,14.1,41.9c10.1,10.6,24.7,16.7,40.2,16.7h1v-7.2h-1
		c-12.7,0-25.8-5.5-34.1-14.4c-8.5-9.1-12.4-20.9-12.4-37V43.3H1432.6z"></path>
	<polygon class="st0ov" points="1065.2,36.1 1012.6,151.6 960.2,36.7 959.9,36.1 951.7,36.1 1010.5,164.8 1014.7,164.8 1073.5,36.1
		"></polygon>
	<path class="st0ov" d="M1192.7,140.1c-11.5,13.3-27.3,20.4-45.9,20.4c-17.1,0-31.6-6.1-41.9-17.6c-9.7-10.8-15-26-15-42.7v-2.5H1204
		v-1c-0.6-17.4-6.7-33.3-17.4-44.9c-11.2-12.2-26.3-18.6-43.5-18.6c-35.3,0-60.9,28.2-60.9,67c0,39.8,26.6,67.5,64.6,67.5
		c20.9,0,38.6-7.7,51.4-22.2l0.6-0.7l-5.5-5.5L1192.7,140.1z M1090.7,90.5c4.2-30.5,24.6-50.1,52.4-50.1c14.3,0,26.9,5.2,36.5,15.1
		c8.8,9,14.4,21.5,15.7,35.1h-104.6V90.5z"></path>
	<path class="st0ov" d="M1768,140.1c-11.5,13.3-27.3,20.4-45.9,20.4c-17.1,0-31.6-6.1-41.9-17.6c-9.7-10.8-15-26-15-42.7v-2.5h114.1
		v-1c-0.6-17.4-6.7-33.3-17.4-44.9c-11.2-12.2-26.3-18.6-43.5-18.6c-35.3,0-60.9,28.2-60.9,67c0,39.8,26.6,67.5,64.6,67.5
		c20.9,0,38.6-7.7,51.4-22.2l0.6-0.7l-5.5-5.5L1768,140.1z M1666,90.5c4.2-30.5,24.6-50.1,52.4-50.1c14.3,0,26.9,5.2,36.5,15.1
		c8.8,9,14.4,21.5,15.7,35.1H1666V90.5z"></path>
	<path class="st0ov" d="M1842.9,94.4c-17.6-5.7-34.2-11.2-34.2-27.3c0-17.5,16-26.6,31.8-26.6c13.2,0,24.1,4.1,33.3,12.4l0.7,0.7
		l5.1-5.5l-0.8-0.7c-8.8-7.3-19.6-14.1-38.4-14.1c-23.3,0-39.6,13.9-39.6,33.8c0,21.6,20,28.1,39.3,34.3
		c18.8,6.1,36.5,11.8,36.5,30.5c0,17.9-17.2,28.7-33.8,28.7c-16.3,0-27.7-4.8-40.5-17l-0.7-0.7l-5.5,5.1l0.7,0.7
		c12.8,12.8,27.8,19,45.9,19c23.3,0,41.6-15.7,41.6-35.8C1884.4,107.9,1862.3,100.7,1842.9,94.4z"></path>
</g>
</svg>